<?xml version="1.0" encoding="UTF-8" standalone="no"?>
<!-- Created with Inkscape (http://www.inkscape.org/) -->

<svg
   xmlns:dc="http://purl.org/dc/elements/1.1/"
   xmlns:cc="http://creativecommons.org/ns#"
   xmlns:rdf="http://www.w3.org/1999/02/22-rdf-syntax-ns#"
   xmlns:svg="http://www.w3.org/2000/svg"
   xmlns="http://www.w3.org/2000/svg"
   version="1.1"
   width="150.20073"
   height="245.38965"
   id="svg3421">
  <defs
     id="defs3423" />
  <metadata
     id="metadata3426">
    <rdf:RDF>
      <cc:Work
         rdf:about="">
        <dc:format>image/svg+xml</dc:format>
        <dc:type
           rdf:resource="http://purl.org/dc/dcmitype/StillImage" />
        <dc:title></dc:title>
      </cc:Work>
    </rdf:RDF>
  </metadata>
  <g
     transform="translate(-336.98312,-308.23878)"
     id="layer1">
    <g
       transform="matrix(7.2118275,0,0,-7.2118275,344.21658,329.45598)"
       id="g102">
      <path
         d="m 0,0 c 0,1.068 0.871,1.939 1.94,1.939 l 14.941,0 c 1.086,0 1.957,-0.871 1.957,-1.939 l 0,-28.142 c 0,-1.068 -0.871,-1.939 -1.957,-1.939 l -14.941,0 C 0.871,-30.081 0,-29.21 0,-28.142 L 0,0"
         id="path104"
         style="fill:#ffffff;fill-opacity:1;fill-rule:nonzero;stroke:none" />
    </g>
    <g
       transform="matrix(7.2118275,0,0,-7.2118275,350.0243,353.40433)"
       id="g148">
      <path
         d="m 0,0 0,3.32 c 0,0.625 0.51,1.135 1.134,1.135 l 14.943,0 c 0.64,0 1.15,-0.51 1.15,-1.135 L 17.227,0 0,0"
         id="path150"
         style="fill:#1d3176;fill-opacity:1;fill-rule:nonzero;stroke:none" />
    </g>
    <path
       d="m 350.02574,359.20985 124.23815,0 0,143.44325 -124.23815,0 0,-143.44325 z"
       id="path152"
       style="fill:#1d3176;fill-opacity:1;fill-rule:nonzero;stroke:none" />
    <g
       transform="matrix(7.2118275,0,0,-7.2118275,344.21658,329.45598)"
       id="g154">
      <path
         d="m 0,0 c 0,1.068 0.871,1.939 1.94,1.939 l 14.941,0 c 1.086,0 1.957,-0.871 1.957,-1.939 l 0,-28.142 c 0,-1.068 -0.871,-1.939 -1.957,-1.939 l -14.941,0 C 0.871,-30.081 0,-29.21 0,-28.142 L 0,0 z m 19.824,0 c 0,1.627 -1.315,2.942 -2.943,2.942 l -14.941,0 C 0.312,2.942 -1.003,1.627 -1.003,0 l 0,-28.142 c 0,-1.627 1.315,-2.942 2.943,-2.942 l 14.941,0 c 1.628,0 2.943,1.315 2.943,2.942 l 0,28.142"
         id="path156"
         style="fill:#1d3176;fill-opacity:1;fill-rule:nonzero;stroke:none" />
    </g>
    <g
       transform="matrix(7.2118275,0,0,-7.2118275,350.0243,508.46364)"
       id="g158">
      <path
         d="m 0,0 0,-3.32 c 0,-0.625 0.51,-1.135 1.134,-1.135 l 14.943,0 c 0.64,0 1.15,0.51 1.15,1.135 L 17.227,0 0,0"
         id="path160"
         style="fill:#1d3176;fill-opacity:1;fill-rule:nonzero;stroke:none" />
    </g>
    <g
       transform="matrix(7.2118275,0,0,-7.2118275,448.06332,341.66924)"
       id="g162">
      <path
         d="m 0,0 c 0.066,-0.099 0.214,-0.214 0.312,-0.263 0.28,-0.148 0.526,-0.197 0.79,-0.197 0.411,0 0.657,0.18 0.657,0.444 0,0.312 -0.312,0.361 -0.79,0.427 -0.607,0.082 -0.936,0.362 -0.936,0.855 0.016,0.493 0.477,0.87 1.15,0.87 0.461,0 0.773,-0.097 0.97,-0.196 l 0,-0.642 C 2.088,1.413 1.94,1.496 1.792,1.562 1.594,1.628 1.397,1.66 1.183,1.66 0.855,1.66 0.658,1.529 0.658,1.365 0.658,1.085 0.921,1.052 1.496,0.937 2.071,0.822 2.416,0.575 2.4,0.065 2.384,-0.526 1.924,-0.921 1.102,-0.921 0.74,-0.921 0.28,-0.855 0,-0.707 L 0,0"
         id="path164"
         style="fill:#ffffff;fill-opacity:1;fill-rule:nonzero;stroke:none" />
    </g>
    <g
       transform="matrix(7.2118275,0,0,-7.2118275,377.52663,342.61757)"
       id="g166">
      <path
         d="m 0,0 c -0.148,0.28 -0.262,0.493 -0.476,0.592 0.46,0.099 0.69,0.361 0.69,0.756 0,0.378 -0.164,0.674 -0.476,0.789 -0.198,0.082 -0.445,0.082 -0.822,0.082 l -1.513,0 c 0.148,-0.098 0.231,-0.394 0.231,-0.657 l 0,-1.661 c 0,-0.246 -0.083,-0.558 -0.231,-0.641 l 1.085,0 c -0.148,0.083 -0.23,0.395 -0.23,0.641 l 0,0.526 0.46,0 c 0.23,0 0.362,-0.082 0.461,-0.262 0.164,-0.264 0.279,-0.625 0.476,-0.905 l 0.871,0 C 0.263,-0.559 0.131,-0.279 0,0 m -0.427,1.315 c 0,-0.296 -0.246,-0.411 -0.625,-0.411 l -0.69,0 0,0.839 0.69,0 c 0.379,0 0.625,-0.115 0.625,-0.428"
         id="path168"
         style="fill:#ffffff;fill-opacity:1;fill-rule:nonzero;stroke:none" />
    </g>
    <g
       transform="matrix(7.2118275,0,0,-7.2118275,389.61936,342.97314)"
       id="g170">
      <path
         d="m 0,0 c -0.181,0.165 -0.263,0.427 -0.263,0.789 0,0.345 0.082,0.608 0.263,0.789 0.148,0.148 0.362,0.247 0.625,0.247 0.263,0 0.476,-0.099 0.624,-0.247 C 1.43,1.397 1.529,1.134 1.529,0.789 1.529,0.427 1.43,0.165 1.249,0 1.101,-0.148 0.888,-0.246 0.625,-0.246 0.362,-0.246 0.148,-0.148 0,0 m 0.625,-0.772 c 0.411,0 0.755,0.115 1.019,0.345 C 1.956,-0.165 2.17,0.23 2.17,0.789 2.17,1.332 1.956,1.743 1.644,2.005 1.38,2.219 1.036,2.334 0.625,2.334 0.214,2.334 -0.131,2.219 -0.395,2.005 -0.707,1.743 -0.921,1.332 -0.921,0.789 c 0,-0.559 0.214,-0.954 0.526,-1.216 0.264,-0.23 0.625,-0.345 1.02,-0.345"
         id="path172"
         style="fill:#ffffff;fill-opacity:1;fill-rule:nonzero;stroke:none" />
    </g>
    <g
       transform="matrix(7.2118275,0,0,-7.2118275,424.94728,342.49929)"
       id="g174">
      <path
         d="m 0,0 c -0.164,-0.214 -0.51,-0.279 -0.888,-0.279 l -0.575,0 0,1.824 c 0,0.246 0.083,0.559 0.214,0.657 l -1.069,0 c 0.148,-0.098 0.23,-0.411 0.23,-0.657 l 0,-1.66 c 0,-0.263 -0.082,-0.542 -0.23,-0.641 l 2.219,0 L 0,0"
         id="path176"
         style="fill:#ffffff;fill-opacity:1;fill-rule:nonzero;stroke:none" />
    </g>
    <g
       transform="matrix(7.2118275,0,0,-7.2118275,444.27065,342.49929)"
       id="g178">
      <path
         d="m 0,0 c -0.165,-0.214 -0.51,-0.296 -0.888,-0.279 l -0.591,0 0,1.824 c 0,0.246 0.082,0.559 0.23,0.657 l -1.068,0 C -2.17,2.104 -2.088,1.791 -2.088,1.545 l 0,-1.66 c 0,-0.263 -0.082,-0.558 -0.229,-0.657 l 2.202,0 L 0,0"
         id="path180"
         style="fill:#ffffff;fill-opacity:1;fill-rule:nonzero;stroke:none" />
    </g>
    <g
       transform="matrix(7.2118275,0,0,-7.2118275,403.25191,479.7743)"
       id="g182">
      <path
         d="M 0,0 0,4.422 C 0.427,4.438 0.838,4.455 1.249,4.487 1.102,4.833 0.954,5.178 0.773,5.506 0.526,5.474 0.263,5.474 0,5.458 l 0,0.92 C -0.576,6.247 -1.199,6.148 -1.841,6.081 l 0,-6.081 c 0,-1.348 -0.624,-1.709 -1.002,-1.956 l 3.846,0 C 0.641,-1.709 0,-1.348 0,0"
         id="path184"
         style="fill:#ffffff;fill-opacity:1;fill-rule:nonzero;stroke:none" />
    </g>
    <g
       transform="matrix(7.2118275,0,0,-7.2118275,467.74082,493.7638)"
       id="g186">
      <path
         d="m 0,0 c -0.312,0.296 -0.707,0.757 -0.904,1.661 -0.362,1.66 -1.117,4.043 -2.712,5.818 1.561,0.855 2.515,2.203 2.515,3.863 0.017,1.184 -0.592,2.433 -1.676,3.173 -0.461,0.295 -1.003,0.509 -1.644,0.641 0.23,-0.494 0.377,-1.02 0.411,-1.545 0.673,-0.526 1.035,-1.332 1.035,-2.302 0,-1.233 -0.624,-2.679 -2.811,-3.419 0.181,-0.345 0.362,-0.707 0.51,-1.052 0.114,0.033 0.23,0.066 0.345,0.099 C -3.912,5.754 -3.091,3.896 -2.843,2.17 -2.663,0.92 -3.107,0.296 -3.403,0 L 0,0"
         id="path188"
         style="fill:#ffffff;fill-opacity:1;fill-rule:nonzero;stroke:none" />
    </g>
    <g
       transform="matrix(7.2118275,0,0,-7.2118275,440.12166,479.41947)"
       id="g190">
      <path
         d="m 0,0 c -0.329,0.296 -0.723,0.756 -0.904,1.66 -0.362,1.66 -1.085,3.994 -2.531,5.654 0.066,0.034 0.115,0.05 0.18,0.083 1.644,0.838 2.647,2.236 2.647,3.945 0.016,1.2 -0.592,2.432 -1.677,3.173 -0.855,0.575 -2.005,0.805 -3.468,0.805 l -5.54,0 c 0.378,-0.247 1.003,-0.609 1.003,-1.957 l 0,-11.407 c 0,-1.365 -0.625,-1.709 -1.003,-1.956 l 3.846,0 c -0.361,0.247 -1.002,0.591 -1.002,1.956 l 0,4.422 c 1.348,0 2.614,0.164 3.682,0.444 C -3.798,5.654 -3.074,3.846 -2.844,2.186 -2.68,0.938 -3.107,0.296 -3.403,0 L 0,0 z m -8.449,7.397 0,6.904 2.614,0 c 0.953,-0.017 1.66,-0.214 2.218,-0.608 0.74,-0.526 1.135,-1.365 1.135,-2.367 0,-1.693 -1.167,-3.847 -5.967,-3.929"
         id="path192"
         style="fill:#ffffff;fill-opacity:1;fill-rule:nonzero;stroke:none" />
    </g>
    <g
       transform="matrix(7.2118275,0,0,-7.2118275,403.25191,418.96053)"
       id="g194">
      <path
         d="m 0,0 0,3.896 2.071,0 C 1.924,4.323 1.66,4.668 1.298,4.931 l -4.141,0 C -2.465,4.685 -1.841,4.34 -1.841,2.975 l 0,-3.435 C -1.151,-0.362 -0.526,-0.214 0,0"
         id="path196"
         style="fill:#ffffff;fill-opacity:1;fill-rule:nonzero;stroke:none" />
    </g>
    <g
       transform="matrix(7.2118275,0,0,-7.2118275,430.39936,524.58352)"
       id="g198">
      <path
         d="m 0,0 c 0,-0.559 0.329,-0.987 0.904,-0.987 0.411,0 0.789,0.115 0.954,0.313 L 1.759,-1.315 C 1.61,-1.381 1.348,-1.463 0.921,-1.463 0,-1.463 -0.641,-0.92 -0.641,0 c 0,0.492 0.197,0.871 0.493,1.117 0.263,0.231 0.624,0.362 1.069,0.362 0.427,0 0.689,-0.082 0.838,-0.163 l 0,-0.609 C 1.578,0.903 1.315,1.003 0.904,1.003 0.329,1.003 0,0.575 0,0"
         id="path200"
         style="fill:#ffffff;fill-opacity:1;fill-rule:nonzero;stroke:none" />
    </g>
    <g
       transform="matrix(7.2118275,0,0,-7.2118275,376.69871,529.56112)"
       id="g202">
      <path
         d="m 0,0 c -0.131,0.263 -0.246,0.476 -0.444,0.559 0.428,0.081 0.641,0.345 0.658,0.707 0,0.377 -0.165,0.657 -0.46,0.772 -0.181,0.065 -0.427,0.065 -0.79,0.065 l -1.43,0 c 0.132,-0.082 0.214,-0.361 0.214,-0.624 l 0,-1.578 c 0,-0.23 -0.082,-0.527 -0.214,-0.625 l 1.019,0 c -0.131,0.098 -0.213,0.395 -0.213,0.625 l 0,0.51 0.427,0 c 0.23,0 0.362,-0.099 0.46,-0.264 0.148,-0.246 0.263,-0.592 0.444,-0.854 L 0.51,-0.724 C 0.246,-0.526 0.132,-0.279 0,0 m -0.411,1.248 c 0,-0.278 -0.23,-0.393 -0.592,-0.393 l -0.657,0 0,0.788 0.657,0 c 0.362,0 0.592,-0.098 0.592,-0.395"
         id="path204"
         style="fill:#ffffff;fill-opacity:1;fill-rule:nonzero;stroke:none" />
    </g>
    <g
       transform="matrix(7.2118275,0,0,-7.2118275,388.19581,529.91669)"
       id="g206">
      <path
         d="M 0,0 C -0.164,0.148 -0.246,0.394 -0.246,0.74 -0.246,1.084 -0.164,1.331 0,1.495 0.148,1.644 0.346,1.726 0.608,1.726 0.855,1.726 1.052,1.644 1.2,1.495 1.364,1.331 1.447,1.084 1.447,0.74 1.447,0.394 1.364,0.148 1.2,0 1.052,-0.149 0.855,-0.247 0.608,-0.247 0.346,-0.247 0.148,-0.149 0,0 m 0.592,-0.741 c 0.395,0 0.723,0.116 0.97,0.33 0.296,0.246 0.509,0.625 0.509,1.151 0,0.526 -0.213,0.904 -0.509,1.166 -0.247,0.198 -0.575,0.313 -0.97,0.313 -0.378,0 -0.707,-0.115 -0.953,-0.313 -0.296,-0.262 -0.51,-0.64 -0.51,-1.166 0,-0.526 0.214,-0.905 0.51,-1.151 0.246,-0.214 0.575,-0.33 0.953,-0.33"
         id="path208"
         style="fill:#ffffff;fill-opacity:1;fill-rule:nonzero;stroke:none" />
    </g>
    <g
       transform="matrix(7.2118275,0,0,-7.2118275,419.01841,514.39176)"
       id="g210">
      <path
         d="m 0,0 c 0.066,-0.05 0.099,-0.099 0.082,-0.164 0,-0.066 -0.032,-0.165 -0.098,-0.263 l -0.559,-0.806 -0.559,0.822 c -0.065,0.1 -0.132,0.197 -0.115,0.28 0.017,0.049 0.033,0.098 0.098,0.131 l -1.134,0 c 0.197,-0.082 0.296,-0.23 0.444,-0.444 l 0.921,-1.298 0,-0.46 c 0,-0.231 -0.082,-0.526 -0.214,-0.609 l 1.019,0 c -0.131,0.083 -0.214,0.378 -0.214,0.609 l 0,0.46 0.839,1.183 C 0.641,-0.394 0.822,-0.099 1.019,0 L 0,0"
         id="path212"
         style="fill:#ffffff;fill-opacity:1;fill-rule:nonzero;stroke:none" />
    </g>
    <g
       transform="matrix(7.2118275,0,0,-7.2118275,458.37693,531.45858)"
       id="g214">
      <path
         d="m 0,0 -0.723,0 0,0.772 1.085,0 0.065,0.427 -1.15,0 0,0.708 0.641,0 c 0.362,0 0.658,-0.018 0.805,-0.165 l 0,0.625 -2.252,0 c 0.132,-0.098 0.214,-0.394 0.214,-0.625 l 0,-1.578 c 0,-0.247 -0.082,-0.526 -0.214,-0.624 l 2.269,0 0.098,0.69 C 0.674,0.016 0.362,0 0,0"
         id="path216"
         style="fill:#ffffff;fill-opacity:1;fill-rule:nonzero;stroke:none" />
    </g>
  </g>
</svg>
