<?xml version="1.0" encoding="UTF-8" standalone="no"?>
<!DOCTYPE svg PUBLIC "-//W3C//DTD SVG 1.1//EN" "http://www.w3.org/Graphics/SVG/1.1/DTD/svg11.dtd">
<svg width="100%" height="100%" viewBox="0 0 1988 413" version="1.1" xmlns="http://www.w3.org/2000/svg" xmlns:xlink="http://www.w3.org/1999/xlink" xml:space="preserve" xmlns:serif="http://www.serif.com/" style="fill-rule:evenodd;clip-rule:evenodd;stroke-linejoin:round;stroke-miterlimit:2;">
    <g transform="matrix(4.16667,0,0,4.16667,0,0)">
        <path d="M117.471,0.675L0,0.675L0,24.897L110.596,24.897C110.596,24.897 115.147,29.657 115.147,38.418C115.147,45.878 111.111,50.507 111.111,50.507L0,50.507L0,99L22.845,99L22.845,74.729L117.35,74.729C135.037,74.729 139.069,50.407 139.05,37.702C139.032,25.954 134.836,0.675 117.471,0.675ZM451.962,67.741C451.278,70.467 450.521,72.891 449.817,74.778L354.898,74.778C352.644,68.217 350.023,57.18 350.023,48.419C350.023,39.513 352.42,30.164 354.383,24.897L449.302,24.897C449.987,26.89 450.702,29.305 451.37,31.935L476.228,31.935C475.413,27.936 474.552,24.665 473.997,22.708C470.248,9.483 465.783,0.675 456.177,0.675L348.145,0.675C327.468,0.675 325.803,47.942 325.803,48.419C325.803,60.167 328.88,72.297 330.203,76.967C333.952,90.192 338.417,99 348.023,99L456.056,99C468.624,99 474.164,81.543 476.579,67.741L451.962,67.741ZM158.134,74.729C161.108,86.805 166.711,99 177.225,99L306.991,99L306.991,74.729L158.134,74.729ZM158.134,24.946L306.991,24.946L306.991,0.675L177.225,0.675C166.711,0.675 161.108,12.87 158.134,24.946ZM266.638,61.26L158.134,61.26L158.134,38.415L266.638,38.415L266.638,61.26Z" style="fill:white;fill-rule:nonzero;"/>
    </g>
</svg>
